PathFileType	4	(X/Y/Z)	/home/abdul/Desktop/myosuite/custom_workspace/IK/output/S13_12_3.trc
DataRate	CameraRate	NumFrames	NumMarkers	Units	OrigDataRate	OrigDataStartFrame	OrigNumFrames
200.0	200.0	44	3	mm	200.0	1144	1525
Frame#	Time	V_Shoulder			V_Elbow			V_Wrist		
		X1	Y1	Z1	X2	Y2	Z2	X3	Y3	Z3

1144	5.715	-83.69846127883757	614.1982942375283	337.7143846489733	-176.71136011321136	481.5312509484619	22.217915171681074	-113.57521377489661	222.4691830752963	66.72944336660609
1145	5.72	-83.70692707613911	614.2245188641617	337.7002062427627	-177.0580756265985	481.8917422447666	22.136149956810357	-114.25463358551234	222.8467032117802	67.21089838824429
1146	5.725	-83.71547538485653	614.2509119053867	337.6857932759322	-177.4187605955827	482.26138057158283	22.056426453776467	-114.95875852290719	223.23095960334928	67.69297373342297
1147	5.73	-83.72413202484893	614.2774846698198	337.6711397274391	-177.7934301215206	482.64017218086826	21.978862159383347	-115.68782839280674	223.62176643458318	68.17507968633689
1148	5.735	-83.73292393074162	614.3042482103609	337.6562394178309	-178.18207975362577	483.02811043576844	21.903571969361106	-116.4420569030703	224.01892596153607	68.65661588977812
1149	5.74	-83.7418791172858	614.33121328398	337.6410860165884	-178.58468527588656	483.42517565372094	21.830667790041094	-117.22163098040922	224.42222892660982	69.13697241969192
1150	5.745	-83.75102664160893	614.3583903120617	337.62567305013954	-179.0012025338417	483.8313349742486	21.76025815267978	-118.02671012846628	224.8314550031611	69.61553089979135
1151	5.75	-83.76039656241495	614.38578934143	337.6099939105468	-179.43156730190145	484.246542251705	21.692447831958543	-118.85742582855933	225.2463732679668	70.09166565345313
1152	5.755	-83.77001989620118	614.4134200061766	337.5940418648652	-179.87569519181355	484.6707379731869	21.62733747018755	-119.71388098431385	225.66674269959128	70.56474488993997
1153	5.76	-83.77992857056512	614.4412914904148	337.5778100651707	-180.3334816027829	485.10384920178126	21.56502320873631	-120.59614941133091	226.09231270062696	71.03413192182974
1154	5.765	-83.79015537468213	614.4694124920744	337.5612915592537	-180.8048017136599	485.54578954527403	21.505596328200635	-121.5042753729577	226.5228236417212	71.49918641037708
1155	5.77	-83.80073390704115	614.4977911878509	337.5444793019722	-181.2895105175196	485.9964591503973	21.449142898796218	-122.43827316314764	226.95800742525464	71.95926563539304
1156	5.775	-83.81169852053256	614.5264351994234	337.52736616725747	-181.787442898856	486.45574472265326	21.39574344244249	-123.39812673731801	227.39758806649957	72.41372578610003
1157	5.78	-83.82308426498872	614.5553515610459	337.50994496076254	-182.2984137535197	486.9235195717073	21.34547260796755	-124.38378939203074	227.84128229006168	72.86192326930748
1158	5.785	-83.83492682728372	614.5845466886152	337.4922084331435	-182.82221815142657	487.39964368230267	21.298398860825046	-125.39518349424273	228.28880013939627	73.30321603115561
1159	5.79	-83.84726246910486	614.6140263503171	337.4741492939591	-183.35863154196585	487.883963810606	21.254584188668165	-126.43220026078927	228.73984559718548	73.73696488859339
1160	5.795	-83.86012796251426	614.6437956389395	337.45576022617485	-183.9074100019338	488.37631360585266	21.21408382407384	-127.49469958868184	229.1941172143728	74.16253486669208
1161	5.8	-83.8735605234243	614.6738589459482	337.43703390125484	-184.468290525717	488.8765137571198	21.17694598565231	-128.58250993671965	229.6513087456686	74.57929653784765
1162	5.805	-83.88759774311593	614.7042199374032	337.41796299482104	-185.04099135734646	489.38437216501654	21.143211638714003	-129.6954282588293	230.11110978936927	74.98662735889462
1163	5.81	-83.9022775179334	614.734881531798	337.39854020286117	-185.62521236393917	489.89968413803706	21.11291427659696	-130.83321998946482	230.57320642937034	75.38391300214133
1164	5.815	-83.91763797729435	614.7658458798916	337.37875825846055	-186.22063544994083	490.4222326132865	21.086079723684573	-131.99561908131275	231.03728187730013	75.77054867634124
1165	5.82	-83.93371741015757	614.7971143466006	337.3586099490346	-186.82692501147847	490.95178840124777	21.06272596106549	-133.18232809546373	231.5030171127562	76.14594043363715
1166	5.825	-83.9505541900957	614.8286874950113	337.3380881340336	-187.44372843002833	491.48811045421814	21.042862975705177	-134.39301834412345	231.9700915196895	76.50950645855566
1167	5.83	-83.96818669912307	614.8605650725664	337.31718576309385	-188.0706766045014	492.03094615800603	21.026492633912866	-135.62733008584925	232.43818351705008	76.86067833518642
1168	5.835	-83.98665325043275	614.892745999471	337.2958958945996	-188.70738452074528	492.5800316464363	21.013608579798106	-136.88487277320965	232.90697118188518	77.19890228875546
1169	5.84	-84.00599201019992	614.9252283593611	337.27421171462913	-189.353451857361	493.1350921381758	21.00419615931896	-138.1652253526752	233.37613286316218	77.52364039789312
1170	5.845	-84.02624091861104	614.9580093922672	337.2521265562459	-190.00846362663134	493.6958422953494	20.998232370428788	-139.46793661645856	233.8453477846753	77.83437177400356
1171	5.85	-84.04743761028126	614.9910854898993	337.2296339191001	-190.67199084926062	494.2619866033756	20.995685839731685	-140.79252560593082	234.31429663548698	78.13059370426578
1172	5.855	-84.06961933422399	615.0244521932741	337.2067274893032	-191.34359126152805	494.8332197714142	20.996516825957585	-142.13848206614952	234.78266214644856	78.4118227549326
1173	5.86	-84.09282287353862	615.0581041926971	337.18340115953475	-192.02281005336278	495.4092271527737	21.000677250468026	-143.50526695094163	235.25012965144393	78.67759583174437
1174	5.865	-84.11708446498368	615.092035330105	337.15964904933924	-192.70918063575766	495.98968518459117	21.008110754902294	-144.89231297789198	235.71638763209836	78.92747119443723
1175	5.87	-84.14243971860371	615.1262386037691	337.1354655255706	-193.40222543585017	496.57426184605197	21.018752785972076	-146.29902523249405	236.1811282447983	79.16102942249996
1176	5.875	-84.16892353757869	615.1607061753506	337.1108452229389	-194.1014567179127	497.16261713438	21.03253070731085	-147.72478182062844	236.6440478289687	79.37787432951818
1177	5.88	-84.19657003846513	615.1954293792911	337.08578306461254	-194.80637742841486	497.7544035577886	21.0493639381827	-149.16893456843906	237.10484739565828	79.57763382363873
1178	5.885	-84.22541247199833	615.2303987345214	337.06027428282783	-195.5164820632417	498.34926664453997	21.069164118754312	-150.63080976858674	237.56323309558627	79.7599607118886
1179	5.89	-84.25548314462405	615.265603958454	337.0343144394573	-196.23125755507897	498.94684546722533	21.09183530153395	-152.10970897176605	238.01891666590515	79.92453344629077
1180	5.895	-84.28681334092808	615.301033983228	337.0078994464852	-196.95018417890938	499.54677318133554	21.117274168482737	-153.6049098222805	238.4716158550357	80.0710568099338
1181	5.9	-84.31943324713005	615.3366769741633	336.9810255863386	-197.67273647349953	500.14867757715535	21.145370273206762	-155.11566693638144	238.92105482502916	80.19926254136794
1182	5.905	-84.35337187580728	615.3725203503747	336.95368953202205	-198.39838417670015	500.7521816439776	21.1760063075439	-156.6412128219871	239.36696453100768	80.30890989592226
1183	5.91	-84.38865699201216	615.4085508074933	336.9258883670004	-199.12659317233084	501.3569041455951	21.20905839176703	-158.18075883831128	239.8090830773302	80.39978614275748
1184	5.915	-84.42531504094416	615.4447543424329	336.8976196047768	-199.85682644637347	501.96246020599244	21.244396387535748	-159.7334961938464	240.24715605022004	80.4717069966917
1185	5.92	-84.4633710773358	615.481116280136	336.8688812081093	-200.58854505015938	502.5684619041291	21.281884232642557	-161.2985969810637	240.68093682668052	80.52451698405555
1186	5.925	-84.5028486967084	615.5176213022261	336.83967160781043	-201.32120906820302	503.17451887666743	21.32138029651632	-162.87521524611316	241.11018685960934	80.55808974205249
1187	5.93	-84.54376996865068	615.55425347749	336.80998972107403	-202.0542785883069	503.7802389274734	21.362737755366695	-164.46248809173034	241.5346759391033	80.57232825131382
